# xmcd CD database file
# Copyright (C) 1993-1998 Ti Kan
#
# Track frame offsets:
#  150
#  26912
#  39982
#  59612
#  94027
#  115537
#  138605
#  163307
#  178009
#  204210
#  224575
#
# Disc length: 3179 seconds
#
# Revision: 1
# Processed by: cddbd v1.4b41PL1 Copyright (c) Steve Scherf et al.
# Submitted via: KiC 2.1 - (C) 1996-1998 Alwin Hoogerdijk
#
DISCID=a00c690b
DTITLE=Clarence Spady - Nature Of The Beast
DYEAR=1900
DGENRE=
TTITLE0=Baby Baby Baby
TTITLE1=Answer To The Man
TTITLE2=Change My Way Of Living
TTITLE3=Nature Of The Beast
TTITLE4=Bad Axe
TTITLE5=Built For Comfort
TTITLE6=Picture Of Love
TTITLE7=Hi Heeled Sneakers
TTITLE8=A Good Fool Is Hard To Find
TTITLE9=Blues Walk
TTITLE10=Gospel Blues
EXTD=
EXTT0=
EXTT1=
EXTT2=
EXTT3=
EXTT4=
EXTT5=
EXTT6=
EXTT7=
EXTT8=
EXTT9=
EXTT10=
PLAYORDER=
